Coordinates
version=1
nRows=17
nColumns=36
inDegrees=yes

Units are S.I. units (second, meters, Newtons, ...)
If the header above contains a line with 'inDegrees', this indicates whether rotational values are in degrees (yes) or radians (no).

endheader
time	pelvis_tilt	pelvis_list	pelvis_rotation	pelvis_tx	pelvis_ty	pelvis_tz	hip_flexion_r	hip_adduction_r	hip_rotation_r	knee_angle_r	knee_angle_r_beta	ankle_angle_r	subtalar_angle_r	mtp_angle_r	hip_flexion_l	hip_adduction_l	hip_rotation_l	knee_angle_l	knee_angle_l_beta	ankle_angle_l	subtalar_angle_l	mtp_angle_l	lumbar_extension	lumbar_bending	lumbar_rotation	arm_flex_r	arm_add_r	arm_rot_r	elbow_flex_r	pro_sup_r	arm_flex_l	arm_add_l	arm_rot_l	elbow_flex_l	pro_sup_l
     15.05000000	     -3.98879568	      1.13207170	     -9.11295307	      0.51931311	      0.91111872	      0.76821519	     31.76563878	      0.15317240	      1.74892919	     25.61972545	      0.44714856	      4.86249341	    -10.85691774	     -7.49999987	      0.59050798	      2.44757293	     -4.07738967	     15.05248751	      0.26271547	     16.70398413	     -5.56754697	     -7.49999987	     -3.18114427	     -1.96538719	     -1.67089237	     -0.98545386	     -8.61156557	     -3.11549565	     15.49904143	     91.56652922	     16.14786461	    -14.73475502	     12.60737672	     25.88896896	     90.59220371
     15.06666670	     -4.11563606	      1.04015668	     -8.71088244	      0.51668897	      0.90015181	      0.76667886	     31.96275385	     -0.03011181	      0.83896186	     19.88003492	      0.34697206	      4.87716360	     -9.26388783	     -7.49999987	     -0.71079620	      2.25805076	     -4.32414148	     14.91415425	      0.26030110	     16.92710172	     -6.09522618	     -7.49999987	     -3.26984391	     -1.79830781	     -2.40454073	     -1.31051888	     -8.70891362	     -4.11958701	     15.11944413	     91.11863121	     16.97817671	    -15.33435319	     12.09604659	     28.11859020	     90.31796624
     15.08333330	     -4.41200117	      0.86518931	     -8.20435888	      0.51681797	      0.89108936	      0.76609248	     32.25008146	     -0.05853966	     -0.12531575	     14.36264505	      0.25067545	      6.07787514	     -7.13544910	     -7.49999987	     -2.07136928	      1.81159419	     -4.73787897	     14.91013287	      0.26023091	     16.93997519	     -7.01318895	     -7.49999987	     -3.15849455	     -1.49235402	     -3.10662030	     -1.78912458	     -8.79476583	     -4.99645452	     14.42101521	     90.67585865	     17.82775546	    -15.83691415	     11.84097362	     29.97576690	     89.94310785
     15.10000000	     -4.84112866	      0.44856767	     -7.60840829	      0.51908856	      0.88562844	      0.76658196	     32.62073919	      0.21850392	     -1.14961973	      9.69896299	      0.16927884	      8.23225977	     -4.58513290	     -7.49999987	     -3.46864279	      0.94647419	     -5.28541653	     15.13468876	      0.26415015	     16.87374875	     -8.13511529	     -7.49999987	     -2.86619282	     -0.85925664	     -3.82373945	     -2.29543171	     -8.98540681	     -5.70007466	     13.21644798	     90.72706355	     18.52745803	    -16.15521191	     11.63427854	     31.61790062	     89.98947829
     15.11666670	     -5.19281665	     -0.20135928	     -7.10183089	      0.52057568	      0.88389446	      0.76691291	     33.03335434	      0.86267634	     -1.71858062	      6.76626948	      0.11809368	     10.15366107	     -3.02620779	     -7.49999987	     -4.92456143	     -0.24370382	     -6.10122634	     15.57191257	      0.27178115	     16.94788343	     -9.28203836	     -7.49999987	     -2.64061858	     -0.00700609	     -4.44225026	     -2.82874758	     -9.18371954	     -6.83901188	     12.35867153	     91.34140414	     19.19252753	    -16.31972436	     11.64609390	     33.01020817	     90.57524133
     15.13333330	     -5.25947779	     -1.11855017	     -6.65169611	      0.52067750	      0.88535637	      0.76637378	     33.21988159	      1.77068760	     -2.43310749	      6.01674363	      0.10501199	     11.25955229	     -2.18266363	     -7.49999987	     -6.33829409	     -1.65494827	     -6.95962586	     16.38641921	      0.28599697	     17.06458187	    -10.81309803	     -7.49999987	     -2.72267621	      1.08234040	     -4.70718401	     -3.31919620	     -9.50166781	     -7.50356715	     11.85930335	     91.70703552	     20.07566313	    -16.03245444	     11.42300372	     33.71084253	     90.72544873
     15.15000000	     -5.20873398	     -2.14506913	     -6.17022172	      0.52184441	      0.88781877	      0.76586572	     33.07180455	      2.74996165	     -3.51317270	      6.93733501	      0.12107934	     11.00881137	     -2.09194162	     -7.49999987	     -7.41230668	     -3.11766298	     -7.89757678	     17.62344898	      0.30758721	     17.26289918	    -11.86539087	     -7.49999987	     -2.91824425	      2.33468732	     -5.10963141	     -3.30697710	     -9.80363460	    -10.46913744	     11.29889340	     94.50740350	     20.57024035	    -15.39482692	     10.30959027	     34.30342498	     91.94755793
     15.16666670	     -5.01001931	     -3.02334364	     -5.86358761	      0.52676601	      0.88755713	      0.76700508	     32.61314825	      3.66768218	     -4.51265968	      9.04032048	      0.15778336	      9.59182131	     -2.50187846	     -7.49999987	     -8.24254932	     -4.35652099	     -8.77606714	     19.37541485	      0.33816478	     17.24226263	    -12.57642426	     -7.49999987	     -3.01887484	      3.41350274	     -5.24332470	     -3.33279931	    -10.26162532	    -10.46531978	     11.15223127	     94.56152342	     20.78745510	    -14.90945044	     10.32826978	     34.45069417	     91.94366381
     15.18333330	     -4.47426748	     -4.04642947	     -5.44808534	      0.53515257	      0.88463249	      0.76891649	     31.50702669	      4.66386730	     -5.37156130	     11.16185114	      0.19481105	      7.36706408	     -3.26214075	     -7.49999987	     -9.08124859	     -5.72081505	     -9.06990583	     21.72493349	      0.37917162	     17.08949028	    -13.00219085	     -7.49999987	     -3.30774548	      4.69348751	     -5.17286779	     -3.42325460	    -10.74748413	    -10.34605213	     10.96838208	     94.62962565	     20.72421000	    -14.06471135	     10.06108947	     34.33858146	     91.76405359
     15.20000000	     -3.90376090	     -4.94002556	     -5.42838817	      0.54444329	      0.88014978	      0.77110960	     30.47515115	      5.76265345	     -5.34716324	     13.44022554	      0.23457619	      5.30382199	     -4.43631417	     -7.49999987	     -9.85013713	     -6.98252506	     -9.74027467	     24.22421480	      0.42279231	     16.19487449	    -12.97957378	     -7.49999987	     -3.44038626	      5.86516316	     -5.15151485	     -3.08199983	    -11.25087021	     -8.62396809	     10.31047470	     94.40437173	     19.95303615	    -13.23278176	      8.89244055	     33.84909417	     90.61867945
     15.21666670	     -3.44396354	     -5.86810811	     -5.53874400	      0.55268322	      0.87694362	      0.77260551	     29.62636084	      6.88924947	     -5.30357171	     15.84166627	      0.27648924	      4.25355164	     -5.06218758	     -7.49999987	    -10.11084939	     -8.43509060	    -10.56854102	     27.37068486	      0.47770857	     14.41140626	    -12.99264145	     -7.49999987	     -3.40164233	      7.11261859	     -4.59655696	     -3.10351153	    -11.68346005	     -8.53537269	     10.34690795	     94.40684556	     19.04026154	    -12.31628311	      8.54982515	     33.43612960	     90.42942811
     15.23333330	     -2.78884449	     -6.69844757	     -5.76334874	      0.55852121	      0.87709847	      0.77446111	     28.51120584	      7.97098111	     -4.98233347	     18.13857295	      0.31657782	      4.40426248	     -5.50081186	     -7.49999987	     -9.91510878	    -10.01201890	    -11.65914334	     31.52446380	      0.55020569	     11.41725104	    -12.80543276	     -7.49999987	     -3.58833441	      8.14740864	     -4.01447152	     -2.87922605	    -11.95903690	     -8.48556810	     10.48217752	     94.37465302	     17.91121826	    -11.67869277	      8.51209185	     33.04774268	     90.34462680
     15.25000000	     -2.25384082	     -7.58965639	     -6.03634667	      0.56098739	      0.88061753	      0.77712181	     27.15057611	      9.22248612	     -4.21145426	     19.73135793	      0.34437716	      4.80836614	     -6.76584779	     -7.49999987	     -8.62867043	    -11.73197029	    -12.13598861	     36.92872919	      0.64452791	      6.64818945	    -14.41807821	     -7.49999987	     -3.50236760	      9.23486333	     -3.07453756	     -2.48552887	    -12.31024759	     -7.91403879	      9.79061446	     94.77872336	     16.86724607	    -10.36292926	      7.33903453	     31.74512183	     90.19780350
     15.26666670	     -1.61564705	     -8.31283445	     -6.28270725	      0.56029715	      0.88746579	      0.78029096	     25.29398433	     10.25453012	     -3.76284245	     20.49477726	      0.35770134	      5.68340005	     -7.13903434	     -7.49999987	     -6.71249692	    -13.25286691	    -12.16880945	     42.78655104	      0.74676619	      1.76172762	    -15.78460307	     -7.49999987	     -3.69123302	     10.12384661	     -2.68966827	     -1.38530842	    -12.57406928	     -5.85808627	      9.27194167	     96.35138598	     15.13244027	     -9.50899913	      5.17322932	     31.49350758	     92.17646932
     15.28333330	     -1.02459452	     -8.70264883	     -6.48223088	      0.55961375	      0.89540311	      0.78291632	     23.16658212	     10.91576731	     -3.23846068	     20.51052658	      0.35797622	      6.32921042	     -7.57934557	     -7.49999987	     -4.33238590	    -14.11468935	    -11.64846842	     48.19694700	      0.84119541	     -2.01679725	    -17.29848522	     -7.49999987	     -3.94548738	     10.65340443	     -1.82688127	     -0.58126422	    -12.61147941	     -4.63182670	      9.53090605	     94.56962192	     13.94735500	     -8.89524505	      5.55282479	     30.64794065	     90.35395228
     15.30000000	     -0.48877395	     -8.70484304	     -6.53569153	      0.56066631	      0.90530139	      0.78503813	     20.81431761	     11.13078335	     -2.54416210	     19.93459394	      0.34792430	      6.61072778	     -8.30557317	     -7.49999987	     -1.71734500	    -14.20766301	    -10.75003997	     52.55261670	      0.91721619	     -3.92531619	    -18.45803173	     -7.49999987	     -4.26231447	     10.73725511	     -0.99517295	      0.15330220	    -12.56595574	     -3.22357432	     10.33982865	     93.83086987	     13.02451553	     -8.58323659	      6.63830528	     29.58574261	     90.34858283
     15.31666670	      0.02899756	     -8.37630642	     -6.37824228	      0.56261810	      0.91636556	      0.78719579	     18.30178967	     10.89404408	     -1.96970221	     19.06466234	      0.33274113	      7.03188015	     -8.59237508	     -7.49999987	      1.00352284	    -13.65694422	     -9.63432301	     55.79639888	      0.97383087	     -4.28734205	    -18.99519465	     -7.49999987	     -4.62532430	     10.52896494	     -0.55978700	      1.08946321	    -12.38983562	     -2.98211824	     11.07979588	     93.60589514	     11.86319634	     -8.34023966	      6.94836901	     28.73962618	     90.36632488
